# OBJ generated by ONSHAPE BY PTC INC, 1.202 Units = meters
mtllib ArenaProjectionPlanes.mtl
g Part 3
v -0.0395429 0.03 0.0197283 
v -0.0395429 -0.02 0.0197283 
v -0.0374923 -0.02 0.0176777 
v -0.0374923 0.03 0.0176777 
v -0.0728476 -0.02 -0.0176777 
v -0.0728476 0.03 -0.0176777 
v -0.0748982 -0.02 -0.0156271 
v -0.0748982 0.03 -0.0156271 
vn 0.707107 0 0.707107 
vn 0.707107 0 -0.707107 
vn -0.707107 0 -0.707107 
vn -0.707107 0 0.707107 
vn 0 1 0 
vn 0 -1 0 
usemtl 0.647059_0.647059_0.647059_0.000000_0.000000
o mesh0
f 1//1 2//1 3//1 
f 3//1 4//1 1//1 
o mesh1
f 4//2 3//2 5//2 
f 5//2 6//2 4//2 
o mesh2
f 6//3 5//3 7//3 
f 7//3 8//3 6//3 
o mesh3
f 8//4 7//4 2//4 
f 2//4 1//4 8//4 
o mesh4
f 6//5 8//5 1//5 
f 1//5 4//5 6//5 
o mesh5
f 5//6 3//6 2//6 
f 2//6 7//6 5//6 
g Part 4
v 0.0728476 0.03 -0.0176777 
v 0.0728476 -0.02 -0.0176777 
v 0.0374923 -0.02 0.0176777 
v 0.0374923 0.03 0.0176777 
v 0.0395429 -0.02 0.0197283 
v 0.0395429 0.03 0.0197283 
v 0.0748982 -0.02 -0.0156271 
v 0.0748982 0.03 -0.0156271 
vn -0.707107 0 -0.707107 
vn -0.707107 0 0.707107 
vn 0.707107 0 0.707107 
vn 0.707107 0 -0.707107 
vn 0 1 0 
vn 0 -1 0 
o mesh6
f 9//7 10//7 11//7 
f 11//7 12//7 9//7 
o mesh7
f 12//8 11//8 13//8 
f 13//8 14//8 12//8 
o mesh8
f 14//9 13//9 15//9 
f 15//9 16//9 14//9 
o mesh9
f 16//10 15//10 10//10 
f 10//10 9//10 16//10 
o mesh10
f 14//11 16//11 9//11 
f 9//11 12//11 14//11 
o mesh11
f 13//12 11//12 10//12 
f 10//12 15//12 13//12 
g Part 2
v -0.0155507 -0.02 0.0130486 
v -0.0155507 0.03 0.0130486 
v -0.0168671 0.03 0.0112956 
v -0.0168671 -0.02 0.0112956 
v -0.0179868 0.03 0.00941089 
v -0.0179868 -0.02 0.00941089 
v -0.0188967 0.03 0.00741642 
v -0.0188967 -0.02 0.00741642 
v -0.0195863 0.03 0.00533546 
v -0.0195863 -0.02 0.00533546 
v -0.0200474 0.03 0.00319228 
v -0.0200474 -0.02 0.00319228 
v -0.0202748 0.03 0.00101187 
v -0.0202748 -0.02 0.00101187 
v -0.0202657 0.03 -0.00118034 
v -0.0202657 -0.02 -0.00118034 
v -0.0200202 0.03 -0.00335879 
v -0.0200202 -0.02 -0.00335879 
v -0.0195413 0.03 -0.00549806 
v -0.0195413 -0.02 -0.00549806 
v -0.0188344 0.03 -0.00757322 
v -0.0188344 -0.02 -0.00757322 
v -0.017908 0.03 -0.00956005 
v -0.017908 -0.02 -0.00956005 
v -0.0167726 0.03 -0.0114354 
v -0.0167726 -0.02 -0.0114354 
v -0.0154417 0.03 -0.0131774 
v -0.0154417 -0.02 -0.0131774 
v -0.0139307 0.03 -0.0147657 
v -0.0139307 -0.02 -0.0147657 
v -0.0122572 0.03 -0.0161818 
v -0.0122572 -0.02 -0.0161818 
v -0.0104408 0.03 -0.0174092 
v -0.0104408 -0.02 -0.0174092 
v -0.00850262 0.03 -0.0184335 
v -0.00850262 -0.02 -0.0184335 
v -0.00646528 0.03 -0.0192429 
v -0.00646528 -0.02 -0.0192429 
v -0.00435254 0.03 -0.0198279 
v -0.00435254 -0.02 -0.0198279 
v -0.00218903 0.03 -0.0201816 
v -0.00218903 -0.02 -0.0201816 
v -2.74564e-18 0.03 -0.0203 
v -2.74564e-18 -0.02 -0.0203 
v 0.00218903 0.03 -0.0201816 
v 0.00218903 -0.02 -0.0201816 
v 0.00435254 0.03 -0.0198279 
v 0.00435254 -0.02 -0.0198279 
v 0.00646528 0.03 -0.0192429 
v 0.00646528 -0.02 -0.0192429 
v 0.00850262 0.03 -0.0184335 
v 0.00850262 -0.02 -0.0184335 
v 0.0104408 0.03 -0.0174092 
v 0.0104408 -0.02 -0.0174092 
v 0.0122572 0.03 -0.0161818 
v 0.0122572 -0.02 -0.0161818 
v 0.0139307 0.03 -0.0147657 
v 0.0139307 -0.02 -0.0147657 
v 0.0154417 0.03 -0.0131774 
v 0.0154417 -0.02 -0.0131774 
v 0.0167726 0.03 -0.0114354 
v 0.0167726 -0.02 -0.0114354 
v 0.017908 0.03 -0.00956005 
v 0.017908 -0.02 -0.00956005 
v 0.0188344 0.03 -0.00757322 
v 0.0188344 -0.02 -0.00757322 
v 0.0195413 0.03 -0.00549806 
v 0.0195413 -0.02 -0.00549806 
v 0.0200202 0.03 -0.00335879 
v 0.0200202 -0.02 -0.00335879 
v 0.0202657 0.03 -0.00118034 
v 0.0202657 -0.02 -0.00118034 
v 0.0202748 0.03 0.00101187 
v 0.0202748 -0.02 0.00101187 
v 0.0200474 0.03 0.00319228 
v 0.0200474 -0.02 0.00319228 
v 0.0195863 0.03 0.00533546 
v 0.0195863 -0.02 0.00533546 
v 0.0188967 0.03 0.00741642 
v 0.0188967 -0.02 0.00741642 
v 0.0179868 0.03 0.00941089 
v 0.0179868 -0.02 0.00941089 
v 0.0168671 0.03 0.0112956 
v 0.0168671 -0.02 0.0112956 
v 0.0155507 0.03 0.0130486 
v 0.0155507 -0.02 0.0130486 
v -0.0151677 -0.02 0.0127272 
v -0.0151677 0.03 0.0127272 
v 0.0164517 -0.02 0.0110174 
v 0.0151677 -0.02 0.0127272 
v 0.0151677 0.03 0.0127272 
v 0.0175438 -0.02 0.00917909 
v 0.0164517 0.03 0.0110174 
v 0.0184313 -0.02 0.00723375 
v 0.0175438 0.03 0.00917909 
v 0.0191039 -0.02 0.00520405 
v 0.0184313 0.03 0.00723375 
v 0.0195536 -0.02 0.00311365 
v 0.0191039 0.03 0.00520405 
v 0.0197754 -0.02 0.000986949 
v 0.0195536 0.03 0.00311365 
v 0.0197665 -0.02 -0.00115127 
v 0.0197754 0.03 0.000986949 
v 0.0195271 -0.02 -0.00327606 
v 0.0197665 0.03 -0.00115127 
v 0.01906 -0.02 -0.00536264 
v 0.0195271 0.03 -0.00327606 
v 0.0183705 -0.02 -0.00738668 
v 0.01906 0.03 -0.00536264 
v 0.0174669 -0.02 -0.00932458 
v 0.0183705 0.03 -0.00738668 
v 0.0163595 -0.02 -0.0111537 
v 0.0174669 0.03 -0.00932458 
v 0.0150614 -0.02 -0.0128528 
v 0.0163595 0.03 -0.0111537 
v 0.0135876 -0.02 -0.014402 
v 0.0150614 0.03 -0.0128528 
v 0.0119553 -0.02 -0.0157832 
v 0.0135876 0.03 -0.014402 
v 0.0101836 -0.02 -0.0169804 
v 0.0119553 0.03 -0.0157832 
v 0.0082932 -0.02 -0.0179795 
v 0.0101836 0.03 -0.0169804 
v 0.00630604 -0.02 -0.018769 
v 0.0082932 0.03 -0.0179795 
v 0.00424533 -0.02 -0.0193395 
v 0.00630604 0.03 -0.018769 
v 0.00213512 -0.02 -0.0196845 
v 0.00424533 0.03 -0.0193395 
v -5.22586e-18 -0.02 -0.0198 
v 0.00213512 0.03 -0.0196845 
v -0.00213512 -0.02 -0.0196845 
v -5.22586e-18 0.03 -0.0198 
v -0.00424533 -0.02 -0.0193395 
v -0.00213512 0.03 -0.0196845 
v -0.00630604 -0.02 -0.018769 
v -0.00424533 0.03 -0.0193395 
v -0.0082932 -0.02 -0.0179795 
v -0.00630604 0.03 -0.018769 
v -0.0101836 -0.02 -0.0169804 
v -0.0082932 0.03 -0.0179795 
v -0.0119553 -0.02 -0.0157832 
v -0.0101836 0.03 -0.0169804 
v -0.0135876 -0.02 -0.014402 
v -0.0119553 0.03 -0.0157832 
v -0.0150614 -0.02 -0.0128528 
v -0.0135876 0.03 -0.014402 
v -0.0163595 -0.02 -0.0111537 
v -0.0150614 0.03 -0.0128528 
v -0.0174669 -0.02 -0.00932458 
v -0.0163595 0.03 -0.0111537 
v -0.0183705 -0.02 -0.00738668 
v -0.0174669 0.03 -0.00932458 
v -0.01906 -0.02 -0.00536264 
v -0.0183705 0.03 -0.00738668 
v -0.0195271 -0.02 -0.00327606 
v -0.01906 0.03 -0.00536264 
v -0.0197665 -0.02 -0.00115127 
v -0.0195271 0.03 -0.00327606 
v -0.0197754 -0.02 0.000986949 
v -0.0197665 0.03 -0.00115127 
v -0.0195536 -0.02 0.00311365 
v -0.0197754 0.03 0.000986949 
v -0.0191039 -0.02 0.00520405 
v -0.0195536 0.03 0.00311365 
v -0.0184313 -0.02 0.00723375 
v -0.0191039 0.03 0.00520405 
v -0.0175438 -0.02 0.00917909 
v -0.0184313 0.03 0.00723375 
v -0.0164517 -0.02 0.0110174 
v -0.0175438 0.03 0.00917909 
v -0.0164517 0.03 0.0110174 
vn -0.766044 0 0.642788 
vn -0.830892 0 0.556434 
vn -0.88605 0 0.463591 
vn -0.930874 0 0.365341 
vn -0.964842 0 0.262831 
vn -0.987558 0 0.157255 
vn -0.998757 0 0.0498459 
vn -0.998308 0 -0.0581448 
vn -0.986217 0 -0.165457 
vn -0.962624 0 -0.27084 
vn -0.927805 0 -0.373065 
vn -0.882166 0 -0.470939 
vn -0.826239 0 -0.56332 
vn -0.760676 0 -0.649132 
vn -0.686242 0 -0.727374 
vn -0.603804 0 -0.797133 
vn -0.514325 0 -0.857595 
vn -0.418848 0 -0.908056 
vn -0.318487 0 -0.947927 
vn -0.214411 0 -0.976744 
vn -0.107834 0 -0.994169 
vn -3.06162e-16 0 -1 
vn 0.107834 0 -0.994169 
vn 0.214411 0 -0.976744 
vn 0.318487 0 -0.947927 
vn 0.418848 0 -0.908056 
vn 0.514325 0 -0.857595 
vn 0.603804 0 -0.797133 
vn 0.686242 0 -0.727374 
vn 0.760676 0 -0.649132 
vn 0.826239 0 -0.56332 
vn 0.882166 0 -0.470939 
vn 0.927805 0 -0.373065 
vn 0.962624 0 -0.27084 
vn 0.986217 0 -0.165457 
vn 0.998308 0 -0.0581448 
vn 0.998757 0 0.0498459 
vn 0.987558 0 0.157255 
vn 0.964842 0 0.262831 
vn 0.930874 0 0.365341 
vn 0.88605 0 0.463591 
vn 0.830892 0 0.556434 
vn 0.766044 0 0.642788 
vn 0.642788 0 0.766044 
vn -0.830892 0 -0.556434 
vn -0.766044 0 -0.642788 
vn -0.88605 0 -0.463591 
vn -0.830892 0 -0.556434 
vn -0.930874 0 -0.365341 
vn -0.88605 0 -0.463591 
vn -0.964842 0 -0.262831 
vn -0.930874 0 -0.365341 
vn -0.987558 0 -0.157255 
vn -0.964842 0 -0.262831 
vn -0.998757 0 -0.0498459 
vn -0.987558 0 -0.157255 
vn -0.998308 0 0.0581448 
vn -0.998757 0 -0.0498459 
vn -0.986217 0 0.165457 
vn -0.998308 0 0.0581448 
vn -0.962624 0 0.27084 
vn -0.986217 0 0.165457 
vn -0.927805 0 0.373065 
vn -0.962624 0 0.27084 
vn -0.882166 0 0.470939 
vn -0.927805 0 0.373065 
vn -0.826239 0 0.56332 
vn -0.882166 0 0.470939 
vn -0.760676 0 0.649132 
vn -0.826239 0 0.56332 
vn -0.686242 0 0.727374 
vn -0.760676 0 0.649132 
vn -0.603804 0 0.797133 
vn -0.686242 0 0.727374 
vn -0.514325 0 0.857595 
vn -0.603804 0 0.797133 
vn -0.418848 0 0.908056 
vn -0.514325 0 0.857595 
vn -0.318487 0 0.947927 
vn -0.418848 0 0.908056 
vn -0.214411 0 0.976744 
vn -0.318487 0 0.947927 
vn -0.107834 0 0.994169 
vn -0.214411 0 0.976744 
vn 3.06162e-16 0 1 
vn -0.107834 0 0.994169 
vn 0.107834 0 0.994169 
vn 3.06162e-16 0 1 
vn 0.214411 0 0.976744 
vn 0.107834 0 0.994169 
vn 0.318487 0 0.947927 
vn 0.214411 0 0.976744 
vn 0.418848 0 0.908056 
vn 0.318487 0 0.947927 
vn 0.514325 0 0.857595 
vn 0.418848 0 0.908056 
vn 0.603804 0 0.797133 
vn 0.514325 0 0.857595 
vn 0.686242 0 0.727374 
vn 0.603804 0 0.797133 
vn 0.760676 0 0.649132 
vn 0.686242 0 0.727374 
vn 0.826239 0 0.56332 
vn 0.760676 0 0.649132 
vn 0.882166 0 0.470939 
vn 0.826239 0 0.56332 
vn 0.927805 0 0.373065 
vn 0.882166 0 0.470939 
vn 0.962624 0 0.27084 
vn 0.927805 0 0.373065 
vn 0.986217 0 0.165457 
vn 0.962624 0 0.27084 
vn 0.998308 0 0.0581448 
vn 0.986217 0 0.165457 
vn 0.998757 0 -0.0498459 
vn 0.998308 0 0.0581448 
vn 0.987558 0 -0.157255 
vn 0.998757 0 -0.0498459 
vn 0.964842 0 -0.262831 
vn 0.987558 0 -0.157255 
vn 0.930874 0 -0.365341 
vn 0.964842 0 -0.262831 
vn 0.88605 0 -0.463591 
vn 0.930874 0 -0.365341 
vn 0.830892 0 -0.556434 
vn 0.88605 0 -0.463591 
vn 0.766044 0 -0.642788 
vn 0.830892 0 -0.556434 
vn -0.642788 0 0.766044 
vn 0 1 0 
vn 0 -1 0 
o mesh12
f 17//13 18//13 19//14 
f 20//14 19//14 21//15 
f 22//15 21//15 23//16 
f 24//16 23//16 25//17 
f 26//17 25//17 27//18 
f 28//18 27//18 29//19 
f 30//19 29//19 31//20 
f 32//20 31//20 33//21 
f 34//21 33//21 35//22 
f 36//22 35//22 37//23 
f 38//23 37//23 39//24 
f 40//24 39//24 41//25 
f 42//25 41//25 43//26 
f 44//26 43//26 45//27 
f 46//27 45//27 47//28 
f 48//28 47//28 49//29 
f 50//29 49//29 51//30 
f 52//30 51//30 53//31 
f 54//31 53//31 55//32 
f 56//32 55//32 57//33 
f 58//33 57//33 59//34 
f 60//34 59//34 61//35 
f 62//35 61//35 63//36 
f 64//36 63//36 65//37 
f 66//37 65//37 67//38 
f 68//38 67//38 69//39 
f 70//39 69//39 71//40 
f 72//40 71//40 73//41 
f 74//41 73//41 75//42 
f 76//42 75//42 77//43 
f 78//43 77//43 79//44 
f 80//44 79//44 81//45 
f 82//45 81//45 83//46 
f 84//46 83//46 85//47 
f 86//47 85//47 87//48 
f 88//48 87//48 89//49 
f 90//49 89//49 91//50 
f 92//50 91//50 93//51 
f 94//51 93//51 95//52 
f 96//52 95//52 97//53 
f 98//53 97//53 99//54 
f 100//54 99//54 101//55 
f 101//55 102//55 100//54 
f 99//54 100//54 98//53 
f 97//53 98//53 96//52 
f 95//52 96//52 94//51 
f 93//51 94//51 92//50 
f 91//50 92//50 90//49 
f 89//49 90//49 88//48 
f 87//48 88//48 86//47 
f 85//47 86//47 84//46 
f 83//46 84//46 82//45 
f 81//45 82//45 80//44 
f 79//44 80//44 78//43 
f 77//43 78//43 76//42 
f 75//42 76//42 74//41 
f 73//41 74//41 72//40 
f 71//40 72//40 70//39 
f 69//39 70//39 68//38 
f 67//38 68//38 66//37 
f 65//37 66//37 64//36 
f 63//36 64//36 62//35 
f 61//35 62//35 60//34 
f 59//34 60//34 58//33 
f 57//33 58//33 56//32 
f 55//32 56//32 54//31 
f 53//31 54//31 52//30 
f 51//30 52//30 50//29 
f 49//29 50//29 48//28 
f 47//28 48//28 46//27 
f 45//27 46//27 44//26 
f 43//26 44//26 42//25 
f 41//25 42//25 40//24 
f 39//24 40//24 38//23 
f 37//23 38//23 36//22 
f 35//22 36//22 34//21 
f 33//21 34//21 32//20 
f 31//20 32//20 30//19 
f 29//19 30//19 28//18 
f 27//18 28//18 26//17 
f 25//17 26//17 24//16 
f 23//16 24//16 22//15 
f 21//15 22//15 20//14 
f 19//14 20//14 17//13 
o mesh13
f 18//56 17//56 103//56 
f 103//56 104//56 18//56 
o mesh14
f 105//57 106//58 107//58 
f 108//59 105//57 109//60 
f 110//61 108//59 111//62 
f 112//63 110//61 113//64 
f 114//65 112//63 115//66 
f 116//67 114//65 117//68 
f 118//69 116//67 119//70 
f 120//71 118//69 121//72 
f 122//73 120//71 123//74 
f 124//75 122//73 125//76 
f 126//77 124//75 127//78 
f 128//79 126//77 129//80 
f 130//81 128//79 131//82 
f 132//83 130//81 133//84 
f 134//85 132//83 135//86 
f 136//87 134//85 137//88 
f 138//89 136//87 139//90 
f 140//91 138//89 141//92 
f 142//93 140//91 143//94 
f 144//95 142//93 145//96 
f 146//97 144//95 147//98 
f 148//99 146//97 149//100 
f 150//101 148//99 151//102 
f 152//103 150//101 153//104 
f 154//105 152//103 155//106 
f 156//107 154//105 157//108 
f 158//109 156//107 159//110 
f 160//111 158//109 161//112 
f 162//113 160//111 163//114 
f 164//115 162//113 165//116 
f 166//117 164//115 167//118 
f 168//119 166//117 169//120 
f 170//121 168//119 171//122 
f 172//123 170//121 173//124 
f 174//125 172//123 175//126 
f 176//127 174//125 177//128 
f 178//129 176//127 179//130 
f 180//131 178//129 181//132 
f 182//133 180//131 183//134 
f 184//135 182//133 185//136 
f 186//137 184//135 187//138 
f 103//139 186//137 188//140 
f 188//140 104//139 103//139 
f 187//138 188//140 186//137 
f 185//136 187//138 184//135 
f 183//134 185//136 182//133 
f 181//132 183//134 180//131 
f 179//130 181//132 178//129 
f 177//128 179//130 176//127 
f 175//126 177//128 174//125 
f 173//124 175//126 172//123 
f 171//122 173//124 170//121 
f 169//120 171//122 168//119 
f 167//118 169//120 166//117 
f 165//116 167//118 164//115 
f 163//114 165//116 162//113 
f 161//112 163//114 160//111 
f 159//110 161//112 158//109 
f 157//108 159//110 156//107 
f 155//106 157//108 154//105 
f 153//104 155//106 152//103 
f 151//102 153//104 150//101 
f 149//100 151//102 148//99 
f 147//98 149//100 146//97 
f 145//96 147//98 144//95 
f 143//94 145//96 142//93 
f 141//92 143//94 140//91 
f 139//90 141//92 138//89 
f 137//88 139//90 136//87 
f 135//86 137//88 134//85 
f 133//84 135//86 132//83 
f 131//82 133//84 130//81 
f 129//80 131//82 128//79 
f 127//78 129//80 126//77 
f 125//76 127//78 124//75 
f 123//74 125//76 122//73 
f 121//72 123//74 120//71 
f 119//70 121//72 118//69 
f 117//68 119//70 116//67 
f 115//66 117//68 114//65 
f 113//64 115//66 112//63 
f 111//62 113//64 110//61 
f 109//60 111//62 108//59 
f 107//58 109//60 105//57 
o mesh15
f 107//141 106//141 102//141 
f 102//141 101//141 107//141 
o mesh16
f 85//142 123//142 121//142 
f 83//142 125//142 123//142 
f 123//142 85//142 83//142 
f 81//142 127//142 125//142 
f 93//142 91//142 117//142 
f 91//142 89//142 119//142 
f 125//142 83//142 81//142 
f 79//142 129//142 127//142 
f 77//142 131//142 129//142 
f 75//142 133//142 131//142 
f 119//142 117//142 91//142 
f 89//142 87//142 121//142 
f 127//142 81//142 79//142 
f 131//142 77//142 75//142 
f 121//142 119//142 89//142 
f 129//142 79//142 77//142 
f 101//142 99//142 109//142 
f 99//142 97//142 111//142 
f 97//142 95//142 113//142 
f 95//142 93//142 115//142 
f 121//142 87//142 85//142 
f 73//142 135//142 133//142 
f 71//142 137//142 135//142 
f 69//142 139//142 137//142 
f 65//142 143//142 141//142 
f 63//142 145//142 143//142 
f 61//142 147//142 145//142 
f 59//142 149//142 147//142 
f 57//142 151//142 149//142 
f 55//142 153//142 151//142 
f 111//142 109//142 99//142 
f 115//142 113//142 95//142 
f 133//142 75//142 73//142 
f 137//142 71//142 69//142 
f 67//142 141//142 139//142 
f 143//142 65//142 63//142 
f 147//142 61//142 59//142 
f 151//142 57//142 55//142 
f 47//142 161//142 159//142 
f 45//142 163//142 161//142 
f 113//142 111//142 97//142 
f 135//142 73//142 71//142 
f 141//142 67//142 65//142 
f 149//142 59//142 57//142 
f 53//142 155//142 153//142 
f 51//142 157//142 155//142 
f 161//142 47//142 45//142 
f 43//142 165//142 163//142 
f 39//142 169//142 167//142 
f 37//142 171//142 169//142 
f 117//142 115//142 93//142 
f 145//142 63//142 61//142 
f 155//142 53//142 51//142 
f 49//142 159//142 157//142 
f 163//142 45//142 43//142 
f 41//142 167//142 165//142 
f 169//142 39//142 37//142 
f 35//142 173//142 171//142 
f 139//142 69//142 67//142 
f 157//142 51//142 49//142 
f 165//142 43//142 41//142 
f 171//142 37//142 35//142 
f 31//142 177//142 175//142 
f 31//142 29//142 179//142 
f 153//142 55//142 53//142 
f 167//142 41//142 39//142 
f 33//142 175//142 173//142 
f 179//142 177//142 31//142 
f 159//142 49//142 47//142 
f 175//142 33//142 31//142 
f 27//142 181//142 179//142 
f 27//142 25//142 183//142 
f 25//142 23//142 185//142 
f 23//142 21//142 187//142 
f 21//142 19//142 188//142 
f 18//142 104//142 188//142 
f 173//142 35//142 33//142 
f 183//142 181//142 27//142 
f 187//142 185//142 23//142 
f 188//142 19//142 18//142 
f 179//142 29//142 27//142 
f 188//142 187//142 21//142 
f 185//142 183//142 25//142 
f 109//142 107//142 101//142 
o mesh17
f 76//143 78//143 128//143 
f 78//143 80//143 126//143 
f 82//143 84//143 122//143 
f 84//143 86//143 120//143 
f 126//143 128//143 78//143 
f 80//143 82//143 124//143 
f 120//143 122//143 84//143 
f 86//143 88//143 118//143 
f 38//143 40//143 166//143 
f 40//143 42//143 164//143 
f 124//143 126//143 80//143 
f 118//143 120//143 86//143 
f 24//143 182//143 184//143 
f 26//143 180//143 182//143 
f 36//143 38//143 168//143 
f 164//143 166//143 40//143 
f 56//143 58//143 148//143 
f 58//143 60//143 146//143 
f 74//143 76//143 130//143 
f 122//143 124//143 82//143 
f 22//143 184//143 186//143 
f 182//143 24//143 26//143 
f 28//143 178//143 180//143 
f 28//143 30//143 176//143 
f 32//143 174//143 176//143 
f 32//143 34//143 172//143 
f 166//143 168//143 38//143 
f 42//143 44//143 162//143 
f 146//143 148//143 58//143 
f 60//143 62//143 144//143 
f 64//143 66//143 140//143 
f 66//143 68//143 138//143 
f 128//143 130//143 76//143 
f 90//143 116//143 118//143 
f 92//143 114//143 116//143 
f 94//143 112//143 114//143 
f 184//143 22//143 24//143 
f 176//143 178//143 28//143 
f 172//143 174//143 32//143 
f 34//143 36//143 170//143 
f 162//143 164//143 42//143 
f 44//143 46//143 160//143 
f 46//143 48//143 158//143 
f 48//143 50//143 156//143 
f 144//143 146//143 60//143 
f 62//143 64//143 142//143 
f 138//143 140//143 66//143 
f 68//143 70//143 136//143 
f 70//143 72//143 134//143 
f 72//143 74//143 132//143 
f 118//143 88//143 90//143 
f 114//143 92//143 94//143 
f 180//143 26//143 28//143 
f 170//143 172//143 34//143 
f 160//143 162//143 44//143 
f 156//143 158//143 48//143 
f 50//143 52//143 154//143 
f 52//143 54//143 152//143 
f 142//143 144//143 62//143 
f 136//143 138//143 68//143 
f 132//143 134//143 72//143 
f 116//143 90//143 92//143 
f 96//143 110//143 112//143 
f 98//143 108//143 110//143 
f 100//143 105//143 108//143 
f 100//143 102//143 106//143 
f 176//143 30//143 32//143 
f 158//143 160//143 46//143 
f 152//143 154//143 52//143 
f 54//143 56//143 150//143 
f 140//143 142//143 64//143 
f 130//143 132//143 74//143 
f 110//143 96//143 98//143 
f 106//143 105//143 100//143 
f 168//143 170//143 36//143 
f 150//143 152//143 54//143 
f 134//143 136//143 70//143 
f 108//143 98//143 100//143 
f 154//143 156//143 50//143 
f 112//143 94//143 96//143 
f 17//143 20//143 186//143 
f 148//143 150//143 56//143 
f 186//143 20//143 22//143 
f 186//143 103//143 17//143 
