# Blender 4.5.1 LTS
# www.blender.org
mtllib ProjectionPlanes3.mtl
o mesh0.002
v 0.135036 0.144808 0.200000
v 0.140007 0.140007 0.200000
v 0.140007 0.140007 -0.300000
v 0.129900 0.149432 0.200000
v 0.135036 0.144808 -0.300000
v 0.124605 0.153875 0.200000
v 0.129900 0.149432 -0.300000
v 0.119159 0.158130 0.200000
v 0.124605 0.153875 -0.300000
v 0.113568 0.162192 0.200000
v 0.119159 0.158130 -0.300000
v 0.107839 0.166057 0.200000
v 0.113568 0.162192 -0.300000
v 0.101978 0.169719 0.200000
v 0.107839 0.166057 -0.300000
v 0.095992 0.173175 0.200000
v 0.101978 0.169719 -0.300000
v 0.089890 0.176419 0.200000
v 0.095992 0.173175 -0.300000
v 0.083678 0.179449 0.200000
v 0.089890 0.176419 -0.300000
v 0.077365 0.182260 0.200000
v 0.083678 0.179449 -0.300000
v 0.070957 0.184849 0.200000
v 0.077365 0.182260 -0.300000
v 0.064462 0.187213 0.200000
v 0.070957 0.184849 -0.300000
v 0.057890 0.189348 0.200000
v 0.064462 0.187213 -0.300000
v 0.051246 0.191253 0.200000
v 0.057890 0.189348 -0.300000
v 0.044540 0.192925 0.200000
v 0.051246 0.191253 -0.300000
v 0.037780 0.194362 0.200000
v 0.044540 0.192925 -0.300000
v 0.030974 0.195562 0.200000
v 0.037780 0.194362 -0.300000
v 0.024130 0.196524 0.200000
v 0.030974 0.195562 -0.300000
v 0.017257 0.197247 0.200000
v 0.024130 0.196524 -0.300000
v 0.010363 0.197729 0.200000
v 0.017257 0.197247 -0.300000
v 0.003456 0.197970 0.200000
v 0.010363 0.197729 -0.300000
v -0.003456 0.197970 0.200000
v 0.003456 0.197970 -0.300000
v -0.010363 0.197729 0.200000
v -0.003456 0.197970 -0.300000
v -0.017257 0.197247 0.200000
v -0.010363 0.197729 -0.300000
v -0.024130 0.196524 0.200000
v -0.017257 0.197247 -0.300000
v -0.030974 0.195562 0.200000
v -0.024130 0.196524 -0.300000
v -0.037780 0.194362 0.200000
v -0.030974 0.195562 -0.300000
v -0.044540 0.192925 0.200000
v -0.037780 0.194362 -0.300000
v -0.051246 0.191253 0.200000
v -0.044540 0.192925 -0.300000
v -0.057890 0.189348 0.200000
v -0.051246 0.191253 -0.300000
v -0.064462 0.187213 0.200000
v -0.057890 0.189348 -0.300000
v -0.070957 0.184849 0.200000
v -0.064462 0.187213 -0.300000
v -0.077365 0.182260 0.200000
v -0.070957 0.184849 -0.300000
v -0.083678 0.179449 0.200000
v -0.077365 0.182260 -0.300000
v -0.089890 0.176419 0.200000
v -0.083678 0.179449 -0.300000
v -0.095992 0.173175 0.200000
v -0.089890 0.176419 -0.300000
v -0.101978 0.169719 0.200000
v -0.095992 0.173175 -0.300000
v -0.107839 0.166057 0.200000
v -0.101978 0.169719 -0.300000
v -0.113568 0.162192 0.200000
v -0.107839 0.166057 -0.300000
v -0.119159 0.158130 0.200000
v -0.113568 0.162192 -0.300000
v -0.124605 0.153875 0.200000
v -0.119159 0.158130 -0.300000
v -0.129900 0.149432 0.200000
v -0.124605 0.153875 -0.300000
v -0.135036 0.144808 0.200000
v -0.129900 0.149432 -0.300000
v -0.140007 0.140007 0.200000
v -0.135036 0.144808 -0.300000
v -0.140007 0.140007 -0.300000
vn 0.6820 0.7314 -0.0000
vn 0.6821 0.7313 -0.0000
vn 0.6560 0.7547 -0.0000
vn 0.6293 0.7771 -0.0000
vn 0.6018 0.7986 -0.0000
vn 0.5736 0.8191 -0.0000
vn 0.5447 0.8387 -0.0000
vn 0.5150 0.8572 -0.0000
vn 0.4848 0.8746 -0.0000
vn 0.4540 0.8910 -0.0000
vn 0.4226 0.9063 -0.0000
vn 0.3907 0.9205 -0.0000
vn 0.3584 0.9336 -0.0000
vn 0.3255 0.9455 -0.0000
vn 0.2923 0.9563 -0.0000
vn 0.2588 0.9659 -0.0000
vn 0.2250 0.9744 -0.0000
vn 0.1908 0.9816 -0.0000
vn 0.1564 0.9877 -0.0000
vn 0.1219 0.9925 -0.0000
vn 0.0872 0.9962 -0.0000
vn 0.0523 0.9986 -0.0000
vn 0.0174 0.9998 -0.0000
vn -0.0174 0.9998 -0.0000
vn -0.0523 0.9986 -0.0000
vn -0.0872 0.9962 -0.0000
vn -0.1219 0.9925 -0.0000
vn -0.1564 0.9877 -0.0000
vn -0.1908 0.9816 -0.0000
vn -0.2250 0.9744 -0.0000
vn -0.2588 0.9659 -0.0000
vn -0.2923 0.9563 -0.0000
vn -0.3255 0.9455 -0.0000
vn -0.3584 0.9336 -0.0000
vn -0.3907 0.9205 -0.0000
vn -0.4226 0.9063 -0.0000
vn -0.4540 0.8910 -0.0000
vn -0.4848 0.8746 -0.0000
vn -0.5150 0.8572 -0.0000
vn -0.5447 0.8387 -0.0000
vn -0.5736 0.8191 -0.0000
vn -0.6018 0.7986 -0.0000
vn -0.6293 0.7771 -0.0000
vn -0.6560 0.7547 -0.0000
vn -0.6820 0.7314 -0.0000
vn -0.6821 0.7313 -0.0000
vt 0.342775 0.000000
vt 0.335562 0.000000
vt 0.335562 1.000000
vt 0.350066 0.000000
vt 0.342775 1.000000
vt 0.357426 0.000000
vt 0.350066 1.000000
vt 0.364845 0.000000
vt 0.357426 1.000000
vt 0.372314 0.000000
vt 0.364845 1.000000
vt 0.379825 0.000000
vt 0.372314 1.000000
vt 0.387368 0.000000
vt 0.379825 1.000000
vt 0.394935 0.000000
vt 0.387368 1.000000
vt 0.402514 0.000000
vt 0.394935 1.000000
vt 0.410099 0.000000
vt 0.402514 1.000000
vt 0.417679 0.000000
vt 0.410099 1.000000
vt 0.425246 0.000000
vt 0.417679 1.000000
vt 0.432789 0.000000
vt 0.425246 1.000000
vt 0.440299 0.000000
vt 0.432789 1.000000
vt 0.447769 0.000000
vt 0.440299 1.000000
vt 0.455188 0.000000
vt 0.447769 1.000000
vt 0.462547 0.000000
vt 0.455188 1.000000
vt 0.469838 0.000000
vt 0.462547 1.000000
vt 0.477052 0.000000
vt 0.469838 1.000000
vt 0.484179 0.000000
vt 0.477052 1.000000
vt 0.491212 0.000000
vt 0.484179 1.000000
vt 0.498141 0.000000
vt 0.491212 1.000000
vt 0.504958 0.000000
vt 0.498141 1.000000
vt 0.511775 0.000000
vt 0.504958 1.000000
vt 0.518704 0.000000
vt 0.511775 1.000000
vt 0.525736 0.000000
vt 0.518704 1.000000
vt 0.532864 0.000000
vt 0.525736 1.000000
vt 0.540077 0.000000
vt 0.532864 1.000000
vt 0.547368 0.000000
vt 0.540077 1.000000
vt 0.554728 0.000000
vt 0.547368 1.000000
vt 0.562147 0.000000
vt 0.554728 1.000000
vt 0.569616 0.000000
vt 0.562147 1.000000
vt 0.577127 0.000000
vt 0.569616 1.000000
vt 0.584670 0.000000
vt 0.577127 1.000000
vt 0.592236 0.000000
vt 0.584670 1.000000
vt 0.599817 0.000000
vt 0.592236 1.000000
vt 0.607401 0.000000
vt 0.599817 1.000000
vt 0.614982 0.000000
vt 0.607401 1.000000
vt 0.622548 0.000000
vt 0.614982 1.000000
vt 0.630091 0.000000
vt 0.622548 1.000000
vt 0.637601 0.000000
vt 0.630091 1.000000
vt 0.645071 0.000000
vt 0.637601 1.000000
vt 0.652490 0.000000
vt 0.645071 1.000000
vt 0.659850 0.000000
vt 0.652490 1.000000
vt 0.667140 0.000000
vt 0.659850 1.000000
vt 0.667140 1.000000
s 1
usemtl 0.917647_0.917647_0.917647_0.000000_0.005
f 1/1/1 2/2/2 3/3/2
f 4/4/3 1/1/1 5/5/1
f 6/6/4 4/4/3 7/7/3
f 8/8/5 6/6/4 9/9/4
f 10/10/6 8/8/5 11/11/5
f 12/12/7 10/10/6 13/13/6
f 14/14/8 12/12/7 15/15/7
f 16/16/9 14/14/8 17/17/8
f 18/18/10 16/16/9 19/19/9
f 20/20/11 18/18/10 21/21/10
f 22/22/12 20/20/11 23/23/11
f 24/24/13 22/22/12 25/25/12
f 26/26/14 24/24/13 27/27/13
f 28/28/15 26/26/14 29/29/14
f 30/30/16 28/28/15 31/31/15
f 32/32/17 30/30/16 33/33/16
f 34/34/18 32/32/17 35/35/17
f 36/36/19 34/34/18 37/37/18
f 38/38/20 36/36/19 39/39/19
f 40/40/21 38/38/20 41/41/20
f 42/42/22 40/40/21 43/43/21
f 44/44/23 42/42/22 45/45/22
f 46/46/24 44/44/23 47/47/23
f 48/48/25 46/46/24 49/49/24
f 50/50/26 48/48/25 51/51/25
f 52/52/27 50/50/26 53/53/26
f 54/54/28 52/52/27 55/55/27
f 56/56/29 54/54/28 57/57/28
f 58/58/30 56/56/29 59/59/29
f 60/60/31 58/58/30 61/61/30
f 62/62/32 60/60/31 63/63/31
f 64/64/33 62/62/32 65/65/32
f 66/66/34 64/64/33 67/67/33
f 68/68/35 66/66/34 69/69/34
f 70/70/36 68/68/35 71/71/35
f 72/72/37 70/70/36 73/73/36
f 74/74/38 72/72/37 75/75/37
f 76/76/39 74/74/38 77/77/38
f 78/78/40 76/76/39 79/79/39
f 80/80/41 78/78/40 81/81/40
f 82/82/42 80/80/41 83/83/41
f 84/84/43 82/82/42 85/85/42
f 86/86/44 84/84/43 87/87/43
f 88/88/45 86/86/44 89/89/44
f 90/90/46 88/88/45 91/91/45
f 91/91/45 92/92/46 90/90/46
f 89/89/44 91/91/45 88/88/45
f 87/87/43 89/89/44 86/86/44
f 85/85/42 87/87/43 84/84/43
f 83/83/41 85/85/42 82/82/42
f 81/81/40 83/83/41 80/80/41
f 79/79/39 81/81/40 78/78/40
f 77/77/38 79/79/39 76/76/39
f 75/75/37 77/77/38 74/74/38
f 73/73/36 75/75/37 72/72/37
f 71/71/35 73/73/36 70/70/36
f 69/69/34 71/71/35 68/68/35
f 67/67/33 69/69/34 66/66/34
f 65/65/32 67/67/33 64/64/33
f 63/63/31 65/65/32 62/62/32
f 61/61/30 63/63/31 60/60/31
f 59/59/29 61/61/30 58/58/30
f 57/57/28 59/59/29 56/56/29
f 55/55/27 57/57/28 54/54/28
f 53/53/26 55/55/27 52/52/27
f 51/51/25 53/53/26 50/50/26
f 49/49/24 51/51/25 48/48/25
f 47/47/23 49/49/24 46/46/24
f 45/45/22 47/47/23 44/44/23
f 43/43/21 45/45/22 42/42/22
f 41/41/20 43/43/21 40/40/21
f 39/39/19 41/41/20 38/38/20
f 37/37/18 39/39/19 36/36/19
f 35/35/17 37/37/18 34/34/18
f 33/33/16 35/35/17 32/32/17
f 31/31/15 33/33/16 30/30/16
f 29/29/14 31/31/15 28/28/15
f 27/27/13 29/29/14 26/26/14
f 25/25/12 27/27/13 24/24/13
f 23/23/11 25/25/12 22/22/12
f 21/21/10 23/23/11 20/20/11
f 19/19/9 21/21/10 18/18/10
f 17/17/8 19/19/9 16/16/9
f 15/15/7 17/17/8 14/14/8
f 13/13/6 15/15/7 12/12/7
f 11/11/5 13/13/6 10/10/6
f 9/9/4 11/11/5 8/8/5
f 7/7/3 9/9/4 6/6/4
f 5/5/1 7/7/3 4/4/3
f 3/3/2 5/5/1 1/1/1
o mesh1
v -0.374923 -0.176777 -0.300000
v -0.374923 -0.176777 0.200000
v -0.728476 0.176777 0.200000
v -0.728476 0.176777 -0.300000
vn -0.7071 -0.7071 -0.0000
vt 0.999641 1.001350
vt 0.999641 -0.001350
vt 0.668994 -0.001350
vt 0.668994 1.001350
s 1
usemtl 0.647059_0.647059_0.647059_0.000000_0.001
f 93/93/47 94/94/47 95/95/47
f 95/95/47 96/96/47 93/93/47
o mesh2
v 0.728476 0.176777 -0.300000
v 0.728476 0.176777 0.200000
v 0.374923 -0.176777 0.200000
v 0.374923 -0.176777 -0.300000
vn 0.7071 -0.7071 -0.0000
vt 0.339195 1.000916
vt 0.339195 -0.000916
vt 0.006934 -0.000916
vt 0.006934 1.000916
s 1
usemtl 0.647059_0.647059_0.647059_0.000000_0.001
f 97/97/48 98/98/48 99/99/48
f 99/99/48 100/100/48 97/97/48
