# Blender 4.5.1 LTS
# www.blender.org
o mesh9
v 0.014001 0.014001 0.030000
v 0.014001 0.014001 -0.020000
v -0.014001 0.014001 -0.020000
v -0.014001 0.014001 0.030000
v 0.012461 0.015387 -0.020000
v 0.010784 0.016606 -0.020000
v 0.012461 0.015388 0.030000
v 0.008989 0.017642 -0.020000
v 0.010784 0.016606 0.030000
v 0.007096 0.018485 -0.020000
v 0.008989 0.017642 0.030000
v 0.005125 0.019125 -0.020000
v 0.007096 0.018485 0.030000
v 0.003097 0.019556 -0.020000
v 0.005125 0.019125 0.030000
v 0.001036 0.019773 -0.020000
v 0.003097 0.019556 0.030000
v -0.001036 0.019773 -0.020000
v 0.001036 0.019773 0.030000
v -0.003097 0.019556 -0.020000
v -0.001036 0.019773 0.030000
v -0.005125 0.019125 -0.020000
v -0.003097 0.019556 0.030000
v -0.007096 0.018485 -0.020000
v -0.005125 0.019125 0.030000
v -0.008989 0.017642 -0.020000
v -0.007096 0.018485 0.030000
v -0.010784 0.016606 -0.020000
v -0.008989 0.017642 0.030000
v -0.012461 0.015387 -0.020000
v -0.010784 0.016606 0.030000
v -0.012461 0.015388 0.030000
vn -0.6293 -0.7771 -0.0000
vn -0.7071 -0.7071 -0.0000
vn -0.5446 -0.8387 -0.0000
vn -0.4540 -0.8910 -0.0000
vn -0.3584 -0.9336 -0.0000
vn -0.2588 -0.9659 -0.0000
vn -0.1565 -0.9877 -0.0000
vn -0.0524 -0.9986 -0.0000
vn -0.1564 -0.9877 -0.0000
vn 0.0524 -0.9986 -0.0000
vn 0.1564 -0.9877 -0.0000
vn 0.2588 -0.9659 -0.0000
vn 0.1565 -0.9877 -0.0000
vn 0.3584 -0.9336 -0.0000
vn 0.4540 -0.8910 -0.0000
vn 0.5446 -0.8387 -0.0000
vn 0.6293 -0.7771 -0.0000
vn 0.7071 -0.7071 -0.0000
s 1
f 5//1 2//2 1//2
f 6//3 5//1 7//1
f 8//4 6//3 9//3
f 10//5 8//4 11//4
f 12//6 10//5 13//5
f 14//7 12//6 15//6
f 16//8 14//7 17//9
f 18//10 16//8 19//8
f 20//11 18//10 21//10
f 22//12 20//11 23//13
f 24//14 22//12 25//12
f 26//15 24//14 27//14
f 28//16 26//15 29//15
f 30//17 28//16 31//16
f 3//18 30//17 32//17
f 32//17 4//18 3//18
f 31//16 32//17 30//17
f 29//15 31//16 28//16
f 27//14 29//15 26//15
f 25//12 27//14 24//14
f 23//13 25//12 22//12
f 21//10 23//13 20//11
f 19//8 21//10 18//10
f 17//9 19//8 16//8
f 15//6 17//9 14//7
f 13//5 15//6 12//6
f 11//4 13//5 10//5
f 9//3 11//4 8//4
f 7//1 9//3 6//3
f 1//2 7//1 5//1
