<?xml version="1.0" encoding="UTF-8" standalone="no"?>
<svg
   version="1.1"
   viewBox="0 0 264.56693 170.07874"
   fill="none"
   stroke="none"
   stroke-linecap="square"
   stroke-miterlimit="10"
   id="svg69"
   sodipodi:docname="opengl_axis.svg"
   width="70mm"
   height="45mm"
   inkscape:version="1.3.2 (091e20e, 2023-11-25, custom)"
   xmlns:inkscape="http://www.inkscape.org/namespaces/inkscape"
   xmlns:sodipodi="http://sodipodi.sourceforge.net/DTD/sodipodi-0.dtd"
   xmlns="http://www.w3.org/2000/svg"
   xmlns:svg="http://www.w3.org/2000/svg">
  <defs
     id="defs69">
    <clipPath
       clipPathUnits="userSpaceOnUse"
       id="clipPath70">
      <g
         id="g71">
        <path
           d="M -86.838966,40.55666 H 873.16103 v 540 H -86.838966 Z"
           clip-rule="nonzero"
           id="path70" />
      </g>
    </clipPath>
    <clipPath
       clipPathUnits="userSpaceOnUse"
       id="clipPath71">
      <g
         id="g72">
        <path
           d="M -86.838966,40.55666 H 873.16103 v 540 H -86.838966 Z"
           clip-rule="nonzero"
           id="path71" />
      </g>
    </clipPath>
    <clipPath
       clipPathUnits="userSpaceOnUse"
       id="clipPath72">
      <g
         id="g73">
        <path
           d="M -86.838966,40.55666 H 873.16103 v 540 H -86.838966 Z"
           clip-rule="nonzero"
           id="path72" />
      </g>
    </clipPath>
    <clipPath
       clipPathUnits="userSpaceOnUse"
       id="clipPath73">
      <g
         id="g74">
        <path
           d="M -86.838966,40.55666 H 873.16103 v 540 H -86.838966 Z"
           clip-rule="nonzero"
           id="path73" />
      </g>
    </clipPath>
    <clipPath
       clipPathUnits="userSpaceOnUse"
       id="clipPath74">
      <g
         id="g75">
        <path
           d="M -86.838966,40.55666 H 873.16103 v 540 H -86.838966 Z"
           clip-rule="nonzero"
           id="path74" />
      </g>
    </clipPath>
    <clipPath
       clipPathUnits="userSpaceOnUse"
       id="clipPath75">
      <g
         id="g76">
        <path
           d="M -86.838966,40.55666 H 873.16103 v 540 H -86.838966 Z"
           clip-rule="nonzero"
           id="path75" />
      </g>
    </clipPath>
    <clipPath
       clipPathUnits="userSpaceOnUse"
       id="clipPath76">
      <g
         id="g77">
        <path
           d="M -86.838966,40.55666 H 873.16103 v 540 H -86.838966 Z"
           clip-rule="nonzero"
           id="path76" />
      </g>
    </clipPath>
    <clipPath
       clipPathUnits="userSpaceOnUse"
       id="clipPath77">
      <g
         id="g78">
        <path
           d="M -86.838966,40.55666 H 873.16103 v 540 H -86.838966 Z"
           clip-rule="nonzero"
           id="path77" />
      </g>
    </clipPath>
    <clipPath
       clipPathUnits="userSpaceOnUse"
       id="clipPath78">
      <g
         id="g79">
        <path
           d="M -86.838966,40.55666 H 873.16103 v 540 H -86.838966 Z"
           clip-rule="nonzero"
           id="path78" />
      </g>
    </clipPath>
    <clipPath
       clipPathUnits="userSpaceOnUse"
       id="clipPath79">
      <g
         id="g80">
        <path
           d="M -86.838966,40.55666 H 873.16103 v 540 H -86.838966 Z"
           clip-rule="nonzero"
           id="path79" />
      </g>
    </clipPath>
    <clipPath
       clipPathUnits="userSpaceOnUse"
       id="clipPath80">
      <g
         id="g81">
        <path
           d="M -86.838966,40.55666 H 873.16103 v 540 H -86.838966 Z"
           clip-rule="nonzero"
           id="path80" />
      </g>
    </clipPath>
    <clipPath
       clipPathUnits="userSpaceOnUse"
       id="clipPath81">
      <g
         id="g82">
        <path
           d="M -86.838966,40.55666 H 873.16103 v 540 H -86.838966 Z"
           clip-rule="nonzero"
           id="path81" />
      </g>
    </clipPath>
    <clipPath
       clipPathUnits="userSpaceOnUse"
       id="clipPath82">
      <g
         id="g83">
        <path
           d="M -86.838966,40.55666 H 873.16103 v 540 H -86.838966 Z"
           clip-rule="nonzero"
           id="path82" />
      </g>
    </clipPath>
    <clipPath
       clipPathUnits="userSpaceOnUse"
       id="clipPath83">
      <g
         id="g84">
        <path
           d="M -86.838966,40.55666 H 873.16103 v 540 H -86.838966 Z"
           clip-rule="nonzero"
           id="path83" />
      </g>
    </clipPath>
    <clipPath
       clipPathUnits="userSpaceOnUse"
       id="clipPath84">
      <g
         id="g85">
        <path
           d="M -86.838966,40.55666 H 873.16103 v 540 H -86.838966 Z"
           clip-rule="nonzero"
           id="path84" />
      </g>
    </clipPath>
    <clipPath
       clipPathUnits="userSpaceOnUse"
       id="clipPath85">
      <g
         id="g86">
        <path
           d="M -86.838966,40.55666 H 873.16103 v 540 H -86.838966 Z"
           clip-rule="nonzero"
           id="path85" />
      </g>
    </clipPath>
    <clipPath
       clipPathUnits="userSpaceOnUse"
       id="clipPath86">
      <g
         id="g87">
        <path
           d="M -86.838966,40.55666 H 873.16103 v 540 H -86.838966 Z"
           clip-rule="nonzero"
           id="path86" />
      </g>
    </clipPath>
    <clipPath
       clipPathUnits="userSpaceOnUse"
       id="clipPath87">
      <g
         id="g88">
        <path
           d="M -86.838966,40.55666 H 873.16103 v 540 H -86.838966 Z"
           clip-rule="nonzero"
           id="path87" />
      </g>
    </clipPath>
    <clipPath
       clipPathUnits="userSpaceOnUse"
       id="clipPath88">
      <g
         id="g89">
        <path
           d="M -86.838966,40.55666 H 873.16103 v 540 H -86.838966 Z"
           clip-rule="nonzero"
           id="path88" />
      </g>
    </clipPath>
    <clipPath
       clipPathUnits="userSpaceOnUse"
       id="clipPath89">
      <g
         id="g90">
        <path
           d="M -86.838966,40.55666 H 873.16103 v 540 H -86.838966 Z"
           clip-rule="nonzero"
           id="path89" />
      </g>
    </clipPath>
    <clipPath
       clipPathUnits="userSpaceOnUse"
       id="clipPath90">
      <g
         id="g91">
        <path
           d="M -86.838966,40.55666 H 873.16103 v 540 H -86.838966 Z"
           clip-rule="nonzero"
           id="path90" />
      </g>
    </clipPath>
    <clipPath
       clipPathUnits="userSpaceOnUse"
       id="clipPath91">
      <g
         id="g92">
        <path
           d="M -86.838966,40.55666 H 873.16103 v 540 H -86.838966 Z"
           clip-rule="nonzero"
           id="path91" />
      </g>
    </clipPath>
    <clipPath
       clipPathUnits="userSpaceOnUse"
       id="clipPath92">
      <g
         id="g93">
        <path
           d="M -86.838966,40.55666 H 873.16103 v 540 H -86.838966 Z"
           clip-rule="nonzero"
           id="path92" />
      </g>
    </clipPath>
    <clipPath
       clipPathUnits="userSpaceOnUse"
       id="clipPath93">
      <g
         id="g94">
        <path
           d="M -86.838966,40.55666 H 873.16103 v 540 H -86.838966 Z"
           clip-rule="nonzero"
           id="path93" />
      </g>
    </clipPath>
    <clipPath
       clipPathUnits="userSpaceOnUse"
       id="clipPath94">
      <g
         id="g95">
        <path
           d="M -86.838966,40.55666 H 873.16103 v 540 H -86.838966 Z"
           clip-rule="nonzero"
           id="path94" />
      </g>
    </clipPath>
    <clipPath
       clipPathUnits="userSpaceOnUse"
       id="clipPath95">
      <g
         id="g96">
        <path
           d="M -86.838966,40.55666 H 873.16103 v 540 H -86.838966 Z"
           clip-rule="nonzero"
           id="path95" />
      </g>
    </clipPath>
    <clipPath
       clipPathUnits="userSpaceOnUse"
       id="clipPath96">
      <g
         id="g97">
        <path
           d="M -86.838966,40.55666 H 873.16103 v 540 H -86.838966 Z"
           clip-rule="nonzero"
           id="path96" />
      </g>
    </clipPath>
    <clipPath
       clipPathUnits="userSpaceOnUse"
       id="clipPath97">
      <g
         id="g98">
        <path
           d="M -86.838966,40.55666 H 873.16103 v 540 H -86.838966 Z"
           clip-rule="nonzero"
           id="path97" />
      </g>
    </clipPath>
    <clipPath
       clipPathUnits="userSpaceOnUse"
       id="clipPath98">
      <g
         id="g99">
        <path
           d="M -86.838966,40.55666 H 873.16103 v 540 H -86.838966 Z"
           clip-rule="nonzero"
           id="path98" />
      </g>
    </clipPath>
    <clipPath
       clipPathUnits="userSpaceOnUse"
       id="clipPath99">
      <g
         id="g100">
        <path
           d="M -86.838966,40.55666 H 873.16103 v 540 H -86.838966 Z"
           clip-rule="nonzero"
           id="path99" />
      </g>
    </clipPath>
    <clipPath
       clipPathUnits="userSpaceOnUse"
       id="clipPath100">
      <g
         id="g101">
        <path
           d="M -86.838966,40.55666 H 873.16103 v 540 H -86.838966 Z"
           clip-rule="nonzero"
           id="path100" />
      </g>
    </clipPath>
    <clipPath
       clipPathUnits="userSpaceOnUse"
       id="clipPath101">
      <g
         id="g102">
        <path
           d="M -86.838966,40.55666 H 873.16103 v 540 H -86.838966 Z"
           clip-rule="nonzero"
           id="path101" />
      </g>
    </clipPath>
    <clipPath
       clipPathUnits="userSpaceOnUse"
       id="clipPath102">
      <g
         id="g103">
        <path
           d="M -86.838966,40.55666 H 873.16103 v 540 H -86.838966 Z"
           clip-rule="nonzero"
           id="path102" />
      </g>
    </clipPath>
    <clipPath
       clipPathUnits="userSpaceOnUse"
       id="clipPath103">
      <g
         id="g104">
        <path
           d="M -86.838966,40.55666 H 873.16103 v 540 H -86.838966 Z"
           clip-rule="nonzero"
           id="path103" />
      </g>
    </clipPath>
    <clipPath
       clipPathUnits="userSpaceOnUse"
       id="clipPath104">
      <g
         id="g105">
        <path
           d="M -86.838966,40.55666 H 873.16103 v 540 H -86.838966 Z"
           clip-rule="nonzero"
           id="path104" />
      </g>
    </clipPath>
    <clipPath
       clipPathUnits="userSpaceOnUse"
       id="clipPath105">
      <g
         id="g106">
        <path
           d="M -86.838966,40.55666 H 873.16103 v 540 H -86.838966 Z"
           clip-rule="nonzero"
           id="path105" />
      </g>
    </clipPath>
    <clipPath
       clipPathUnits="userSpaceOnUse"
       id="clipPath106">
      <g
         id="g107">
        <path
           d="M -86.838966,40.55666 H 873.16103 v 540 H -86.838966 Z"
           clip-rule="nonzero"
           id="path106" />
      </g>
    </clipPath>
    <clipPath
       clipPathUnits="userSpaceOnUse"
       id="clipPath107">
      <g
         id="g108">
        <path
           d="M -86.838966,40.55666 H 873.16103 v 540 H -86.838966 Z"
           clip-rule="nonzero"
           id="path107" />
      </g>
    </clipPath>
    <clipPath
       clipPathUnits="userSpaceOnUse"
       id="clipPath108">
      <g
         id="g109">
        <path
           d="M -86.838966,40.55666 H 873.16103 v 540 H -86.838966 Z"
           clip-rule="nonzero"
           id="path108" />
      </g>
    </clipPath>
    <clipPath
       clipPathUnits="userSpaceOnUse"
       id="clipPath109">
      <g
         id="g110">
        <path
           d="M -86.838966,40.55666 H 873.16103 v 540 H -86.838966 Z"
           clip-rule="nonzero"
           id="path109" />
      </g>
    </clipPath>
    <clipPath
       clipPathUnits="userSpaceOnUse"
       id="clipPath110">
      <g
         id="g111">
        <path
           d="M -86.838966,40.55666 H 873.16103 v 540 H -86.838966 Z"
           clip-rule="nonzero"
           id="path110" />
      </g>
    </clipPath>
    <clipPath
       clipPathUnits="userSpaceOnUse"
       id="clipPath111">
      <g
         id="g112">
        <path
           d="M -86.838966,40.55666 H 873.16103 v 540 H -86.838966 Z"
           clip-rule="nonzero"
           id="path111" />
      </g>
    </clipPath>
    <clipPath
       clipPathUnits="userSpaceOnUse"
       id="clipPath112">
      <g
         id="g113">
        <path
           d="M -86.838966,40.55666 H 873.16103 v 540 H -86.838966 Z"
           clip-rule="nonzero"
           id="path112" />
      </g>
    </clipPath>
    <clipPath
       clipPathUnits="userSpaceOnUse"
       id="clipPath113">
      <g
         id="g114">
        <path
           d="M -86.838966,40.55666 H 873.16103 v 540 H -86.838966 Z"
           clip-rule="nonzero"
           id="path113" />
      </g>
    </clipPath>
    <clipPath
       clipPathUnits="userSpaceOnUse"
       id="clipPath114">
      <g
         id="g115">
        <path
           d="M -86.838966,40.55666 H 873.16103 v 540 H -86.838966 Z"
           clip-rule="nonzero"
           id="path114" />
      </g>
    </clipPath>
    <clipPath
       clipPathUnits="userSpaceOnUse"
       id="clipPath115">
      <g
         id="g116">
        <path
           d="M -86.838966,40.55666 H 873.16103 v 540 H -86.838966 Z"
           clip-rule="nonzero"
           id="path115" />
      </g>
    </clipPath>
    <clipPath
       clipPathUnits="userSpaceOnUse"
       id="clipPath116">
      <g
         id="g117">
        <path
           d="M -86.838966,40.55666 H 873.16103 v 540 H -86.838966 Z"
           clip-rule="nonzero"
           id="path116" />
      </g>
    </clipPath>
    <clipPath
       clipPathUnits="userSpaceOnUse"
       id="clipPath117">
      <g
         id="g118">
        <path
           d="M -86.838966,40.55666 H 873.16103 v 540 H -86.838966 Z"
           clip-rule="nonzero"
           id="path117" />
      </g>
    </clipPath>
    <clipPath
       clipPathUnits="userSpaceOnUse"
       id="clipPath118">
      <g
         id="g119">
        <path
           d="M -86.838966,40.55666 H 873.16103 v 540 H -86.838966 Z"
           clip-rule="nonzero"
           id="path118" />
      </g>
    </clipPath>
    <clipPath
       clipPathUnits="userSpaceOnUse"
       id="clipPath119">
      <g
         id="g120">
        <path
           d="M -86.838966,40.55666 H 873.16103 v 540 H -86.838966 Z"
           clip-rule="nonzero"
           id="path119" />
      </g>
    </clipPath>
    <clipPath
       clipPathUnits="userSpaceOnUse"
       id="clipPath120">
      <g
         id="g121">
        <path
           d="M -86.838966,40.55666 H 873.16103 v 540 H -86.838966 Z"
           clip-rule="nonzero"
           id="path120" />
      </g>
    </clipPath>
    <clipPath
       clipPathUnits="userSpaceOnUse"
       id="clipPath121">
      <g
         id="g122">
        <path
           d="M -86.838966,40.55666 H 873.16103 v 540 H -86.838966 Z"
           clip-rule="nonzero"
           id="path121" />
      </g>
    </clipPath>
    <clipPath
       clipPathUnits="userSpaceOnUse"
       id="clipPath122">
      <g
         id="g123">
        <path
           d="M -86.838966,40.55666 H 873.16103 v 540 H -86.838966 Z"
           clip-rule="nonzero"
           id="path122" />
      </g>
    </clipPath>
    <clipPath
       clipPathUnits="userSpaceOnUse"
       id="clipPath123">
      <g
         id="g124">
        <path
           d="M -86.838966,40.55666 H 873.16103 v 540 H -86.838966 Z"
           clip-rule="nonzero"
           id="path123" />
      </g>
    </clipPath>
    <clipPath
       clipPathUnits="userSpaceOnUse"
       id="clipPath124">
      <g
         id="g125">
        <path
           d="M -86.838966,40.55666 H 873.16103 v 540 H -86.838966 Z"
           clip-rule="nonzero"
           id="path124" />
      </g>
    </clipPath>
    <clipPath
       clipPathUnits="userSpaceOnUse"
       id="clipPath125">
      <g
         id="g126">
        <path
           d="M -86.838966,40.55666 H 873.16103 v 540 H -86.838966 Z"
           clip-rule="nonzero"
           id="path125" />
      </g>
    </clipPath>
    <clipPath
       clipPathUnits="userSpaceOnUse"
       id="clipPath126">
      <g
         id="g127">
        <path
           d="M -86.838966,40.55666 H 873.16103 v 540 H -86.838966 Z"
           clip-rule="nonzero"
           id="path126" />
      </g>
    </clipPath>
    <clipPath
       clipPathUnits="userSpaceOnUse"
       id="clipPath127">
      <g
         id="g128">
        <path
           d="M -86.838966,40.55666 H 873.16103 v 540 H -86.838966 Z"
           clip-rule="nonzero"
           id="path127" />
      </g>
    </clipPath>
    <clipPath
       clipPathUnits="userSpaceOnUse"
       id="clipPath128">
      <g
         id="g129">
        <path
           d="M -86.838966,40.55666 H 873.16103 v 540 H -86.838966 Z"
           clip-rule="nonzero"
           id="path128" />
      </g>
    </clipPath>
    <clipPath
       clipPathUnits="userSpaceOnUse"
       id="clipPath129">
      <g
         id="g130">
        <path
           d="M -86.838966,40.55666 H 873.16103 v 540 H -86.838966 Z"
           clip-rule="nonzero"
           id="path129" />
      </g>
    </clipPath>
    <clipPath
       clipPathUnits="userSpaceOnUse"
       id="clipPath130">
      <g
         id="g131">
        <path
           d="M -86.838966,40.55666 H 873.16103 v 540 H -86.838966 Z"
           clip-rule="nonzero"
           id="path130" />
      </g>
    </clipPath>
    <clipPath
       clipPathUnits="userSpaceOnUse"
       id="clipPath131">
      <g
         id="g132">
        <path
           d="M -86.838966,40.55666 H 873.16103 v 540 H -86.838966 Z"
           clip-rule="nonzero"
           id="path131" />
      </g>
    </clipPath>
    <clipPath
       clipPathUnits="userSpaceOnUse"
       id="clipPath132">
      <g
         id="g133">
        <path
           d="M -86.838966,40.55666 H 873.16103 v 540 H -86.838966 Z"
           clip-rule="nonzero"
           id="path132" />
      </g>
    </clipPath>
    <clipPath
       clipPathUnits="userSpaceOnUse"
       id="clipPath133">
      <g
         id="g134">
        <path
           d="M -86.838966,40.55666 H 873.16103 v 540 H -86.838966 Z"
           clip-rule="nonzero"
           id="path133" />
      </g>
    </clipPath>
    <clipPath
       clipPathUnits="userSpaceOnUse"
       id="clipPath134">
      <g
         id="g135">
        <path
           d="M -86.838966,40.55666 H 873.16103 v 540 H -86.838966 Z"
           clip-rule="nonzero"
           id="path134" />
      </g>
    </clipPath>
    <clipPath
       clipPathUnits="userSpaceOnUse"
       id="clipPath135">
      <g
         id="g136">
        <path
           d="M -86.838966,40.55666 H 873.16103 v 540 H -86.838966 Z"
           clip-rule="nonzero"
           id="path135" />
      </g>
    </clipPath>
    <clipPath
       clipPathUnits="userSpaceOnUse"
       id="clipPath136">
      <g
         id="g137">
        <path
           d="M -86.838966,40.55666 H 873.16103 v 540 H -86.838966 Z"
           clip-rule="nonzero"
           id="path136" />
      </g>
    </clipPath>
    <clipPath
       clipPathUnits="userSpaceOnUse"
       id="clipPath137">
      <g
         id="g138">
        <path
           d="M -86.838966,40.55666 H 873.16103 v 540 H -86.838966 Z"
           clip-rule="nonzero"
           id="path137" />
      </g>
    </clipPath>
  </defs>
  <sodipodi:namedview
     id="namedview69"
     pagecolor="#ffffff"
     bordercolor="#000000"
     borderopacity="0.25"
     inkscape:showpageshadow="2"
     inkscape:pageopacity="0.0"
     inkscape:pagecheckerboard="0"
     inkscape:deskcolor="#d1d1d1"
     inkscape:document-units="mm"
     inkscape:zoom="2.0958333"
     inkscape:cx="480.23857"
     inkscape:cy="193.47913"
     inkscape:window-width="2560"
     inkscape:window-height="1361"
     inkscape:window-x="-9"
     inkscape:window-y="-9"
     inkscape:window-maximized="1"
     inkscape:current-layer="svg69" />
  <g
     id="g139"
     transform="translate(-534.39364,-120.7157)">
    <path
       fill="#eeeeee"
       fill-opacity="0.7"
       d="m 574.14528,169.30206 101.10236,20.47244 v 61.41733 L 574.14528,230.71939 Z"
       fill-rule="evenodd"
       id="path48"
       clip-path="url(#clipPath91)" />
    <path
       stroke="#595959"
       stroke-width="1"
       stroke-linejoin="round"
       stroke-linecap="butt"
       d="m 574.14528,169.30206 101.10236,20.47244 v 61.41733 L 574.14528,230.71939 Z"
       fill-rule="evenodd"
       id="path49"
       clip-path="url(#clipPath90)" />
    <path
       fill="#000000"
       fill-opacity="0"
       d="m 629.18463,210.24958 -62.20471,35.9055"
       fill-rule="evenodd"
       id="path50"
       clip-path="url(#clipPath89)" />
    <path
       stroke="#0000ff"
       stroke-width="2"
       stroke-linejoin="round"
       stroke-linecap="butt"
       d="M 629.18463,210.24958 577.3728,240.15613"
       fill-rule="evenodd"
       id="path51"
       clip-path="url(#clipPath88)" />
    <path
       fill="#0000ff"
       stroke="#0000ff"
       stroke-width="2"
       stroke-linecap="butt"
       d="m 575.72139,237.29509 -6.20923,7.39835 9.51215,-1.67626 z"
       fill-rule="evenodd"
       id="path52"
       clip-path="url(#clipPath87)" />
    <path
       fill="#000000"
       fill-opacity="0"
       d="m 629.04293,210.24958 75.77954,-43.74803"
       fill-rule="evenodd"
       id="path53"
       clip-path="url(#clipPath86)" />
    <path
       stroke="#0000ff"
       stroke-width="1"
       stroke-linejoin="round"
       stroke-linecap="butt"
       stroke-dasharray="4, 3"
       d="m 629.04293,210.24958 75.77954,-43.74803"
       fill-rule="evenodd"
       id="path54"
       clip-path="url(#clipPath85)" />
    <path
       fill="#000000"
       fill-opacity="0"
       d="M 704.68073,224.95824 629.18464,210.24958"
       fill-rule="evenodd"
       id="path55"
       clip-path="url(#clipPath84)" />
    <path
       stroke="#ff0000"
       stroke-width="2"
       stroke-linejoin="round"
       stroke-linecap="butt"
       d="M 692.90218,222.66346 629.18465,210.24958"
       fill-rule="evenodd"
       id="path56"
       clip-path="url(#clipPath83)" />
    <path
       fill="#ff0000"
       stroke="#ff0000"
       stroke-width="2"
       stroke-linecap="butt"
       d="m 692.27047,225.90596 9.5404,-1.50685 -8.27697,-4.97815 z"
       fill-rule="evenodd"
       id="path57"
       clip-path="url(#clipPath82)" />
    <path
       fill="#000000"
       fill-opacity="0"
       d="m 629.18463,132.83225 v 77.41733"
       fill-rule="evenodd"
       id="path58"
       clip-path="url(#clipPath81)" />
    <path
       stroke="#00ff00"
       stroke-width="2"
       stroke-linejoin="round"
       stroke-linecap="butt"
       d="m 629.18463,144.83225 v 65.41733"
       fill-rule="evenodd"
       id="path59"
       clip-path="url(#clipPath80)" />
    <path
       fill="#00ff00"
       stroke="#00ff00"
       stroke-width="2"
       stroke-linecap="butt"
       d="m 632.48813,144.83225 -3.30347,-9.0762 -3.30346,9.0762 z"
       fill-rule="evenodd"
       id="path60"
       clip-path="url(#clipPath79)" />
    <path
       fill="#000000"
       fill-opacity="0"
       d="M 548.80147,242.03435 H 597.1794 V 284.0501 H 548.80147 Z"
       fill-rule="evenodd"
       id="path61"
       clip-path="url(#clipPath78)" />
    <path
       fill="#0000ff"
       d="m 567.66743,268.95435 v -1.64063 l 6.84375,-8.54687 q 0.71875,-0.92188 1.375,-1.59375 h -7.45313 v -1.57813 h 9.57813 v 1.57813 l -7.5,9.26562 -0.8125,0.9375 h 8.53125 v 1.57813 z"
       fill-rule="nonzero"
       id="path62"
       clip-path="url(#clipPath77)" />
    <path
       fill="#000000"
       fill-opacity="0"
       d="m 687.64919,162.51729 h 94.36224 v 51.71654 h -94.36224 z"
       fill-rule="evenodd"
       id="path63"
       clip-path="url(#clipPath76)" />
    <path
       fill="#0000ff"
       d="m 699.86257,184.3173 v -9.54688 h 1.26563 v 8.42188 h 4.70312 v 1.125 z m 7.33435,-8.1875 v -1.35938 h 1.17188 v 1.35938 z m 0,8.1875 v -6.90625 h 1.17188 v 6.90625 z m 2.94544,0 v -6.90625 h 1.0625 v 0.98437 q 0.75,-1.14062 2.1875,-1.14062 0.625,0 1.15625,0.21875 0.53125,0.21875 0.78125,0.59375 0.26562,0.35937 0.375,0.85937 0.0625,0.32813 0.0625,1.14063 v 4.25 h -1.17188 v -4.20313 q 0,-0.71875 -0.14062,-1.0625 -0.14063,-0.35937 -0.48438,-0.5625 -0.34375,-0.21875 -0.8125,-0.21875 -0.75,0 -1.29687,0.46875 -0.54688,0.46875 -0.54688,1.79688 v 3.78125 z m 12.14685,-2.21875 1.20312,0.14062 q -0.28125,1.0625 -1.0625,1.65625 -0.76562,0.57813 -1.96875,0.57813 -1.51562,0 -2.40625,-0.9375 -0.89062,-0.9375 -0.89062,-2.60938 0,-1.75 0.89062,-2.70312 0.90625,-0.96875 2.34375,-0.96875 1.39063,0 2.26563,0.9375 0.875,0.9375 0.875,2.65625 0,0.10937 0,0.3125 h -5.15625 q 0.0625,1.14062 0.64062,1.75 0.57813,0.59375 1.4375,0.59375 0.65625,0 1.10938,-0.32813 0.45312,-0.34375 0.71875,-1.07812 z m -3.84375,-1.90625 h 3.85937 q -0.0781,-0.85938 -0.4375,-1.29688 -0.5625,-0.6875 -1.45312,-0.6875 -0.8125,0 -1.35938,0.54688 -0.54687,0.53125 -0.60937,1.4375 z m 9.78735,0.67187 q 0,-1.92187 1.07812,-2.84375 0.89063,-0.76562 2.17188,-0.76562 1.42187,0 2.32812,0.9375 0.90625,0.92187 0.90625,2.57812 0,1.32813 -0.40625,2.09375 -0.39062,0.76563 -1.15625,1.1875 -0.76562,0.42188 -1.67187,0.42188 -1.45313,0 -2.35938,-0.92188 -0.89062,-0.9375 -0.89062,-2.6875 z m 1.20312,0 q 0,1.32813 0.57813,1.98438 0.59375,0.65625 1.46875,0.65625 0.875,0 1.45312,-0.65625 0.57813,-0.67188 0.57813,-2.03125 0,-1.28125 -0.59375,-1.9375 -0.57813,-0.65625 -1.4375,-0.65625 -0.875,0 -1.46875,0.65625 -0.57813,0.65625 -0.57813,1.98437 z m 6.92811,3.45313 v -6 h -1.03125 v -0.90625 h 1.03125 v -0.73438 q 0,-0.70312 0.125,-1.04687 0.17187,-0.45313 0.59375,-0.73438 0.42187,-0.28125 1.20312,-0.28125 0.48438,0 1.09375,0.10938 l -0.1875,1.03125 q -0.35937,-0.0625 -0.6875,-0.0625 -0.53125,0 -0.75,0.23437 -0.21875,0.21875 -0.21875,0.84375 v 0.64063 h 1.34375 v 0.90625 h -1.34375 v 6 z m 6.65594,-2.0625 1.15625,-0.1875 q 0.10938,0.70312 0.54688,1.07812 0.45312,0.35938 1.25,0.35938 0.8125,0 1.20312,-0.32813 0.39063,-0.32812 0.39063,-0.76562 0,-0.39063 -0.35938,-0.625 -0.23437,-0.15625 -1.1875,-0.39063 -1.29687,-0.32812 -1.79687,-0.5625 -0.48438,-0.25 -0.75,-0.65625 -0.25,-0.42187 -0.25,-0.9375 0,-0.45312 0.20312,-0.84375 0.21875,-0.40625 0.57813,-0.67187 0.28125,-0.1875 0.75,-0.32813 0.46875,-0.14062 1.01562,-0.14062 0.8125,0 1.42188,0.23437 0.60937,0.23438 0.90625,0.64063 0.29687,0.39062 0.40625,1.0625 l -1.14063,0.15625 q -0.0781,-0.53125 -0.45312,-0.82813 -0.375,-0.3125 -1.0625,-0.3125 -0.8125,0 -1.15625,0.26563 -0.34375,0.26562 -0.34375,0.625 0,0.23437 0.14062,0.42187 0.15625,0.1875 0.45313,0.3125 0.17187,0.0625 1.03125,0.29688 1.25,0.32812 1.73437,0.54687 0.5,0.20313 0.78125,0.60938 0.28125,0.40625 0.28125,1 0,0.59375 -0.34375,1.10937 -0.34375,0.51563 -1,0.79688 -0.64062,0.28125 -1.45312,0.28125 -1.34375,0 -2.04688,-0.5625 -0.70312,-0.5625 -0.90625,-1.65625 z m 7.14844,-6.125 v -1.35938 h 1.17187 v 1.35938 z m 0,8.1875 v -6.90625 h 1.17187 v 6.90625 z m 2.72674,0.57812 1.14063,0.15625 q 0.0781,0.53125 0.40625,0.78125 0.4375,0.3125 1.1875,0.3125 0.8125,0 1.25,-0.32812 0.45312,-0.3125 0.60937,-0.90625 0.0937,-0.35938 0.0781,-1.5 -0.76563,0.90625 -1.90625,0.90625 -1.4375,0 -2.21875,-1.03125 -0.78125,-1.03125 -0.78125,-2.46875 0,-0.98438 0.35937,-1.8125 0.35938,-0.84375 1.03125,-1.29688 0.6875,-0.45312 1.60938,-0.45312 1.21875,0 2.01562,0.98437 v -0.82812 h 1.07813 v 5.96875 q 0,1.60937 -0.32813,2.28125 -0.32812,0.6875 -1.04687,1.07812 -0.70313,0.39063 -1.75,0.39063 -1.23438,0 -2,-0.5625 -0.75,-0.5625 -0.73438,-1.67188 z m 0.98438,-4.15625 q 0,1.35938 0.53125,1.98438 0.54687,0.625 1.35937,0.625 0.79688,0 1.34375,-0.625 0.54688,-0.625 0.54688,-1.95313 0,-1.26562 -0.5625,-1.90625 -0.5625,-0.64062 -1.35938,-0.64062 -0.76562,0 -1.3125,0.64062 -0.54687,0.625 -0.54687,1.875 z m 6.64685,3.57813 v -9.54688 h 1.17187 v 3.42188 q 0.82813,-0.9375 2.07813,-0.9375 0.76562,0 1.32812,0.29687 0.5625,0.29688 0.8125,0.84375 0.25,0.53125 0.25,1.54688 v 4.375 h -1.17187 v -4.375 q 0,-0.89063 -0.39063,-1.28125 -0.375,-0.40625 -1.07812,-0.40625 -0.51563,0 -0.98438,0.28125 -0.45312,0.26562 -0.65625,0.73437 -0.1875,0.45313 -0.1875,1.26563 v 3.78125 z m 9.97497,-1.04688 0.17188,1.03125 q -0.5,0.10938 -0.89063,0.10938 -0.64062,0 -1,-0.20313 -0.34375,-0.20312 -0.48437,-0.53125 -0.14063,-0.32812 -0.14063,-1.39062 v -3.96875 h -0.85937 v -0.90625 h 0.85937 v -1.71875 l 1.17188,-0.70313 v 2.42188 h 1.17187 v 0.90625 h -1.17187 v 4.04687 q 0,0.5 0.0469,0.64063 0.0625,0.14062 0.20313,0.23437 0.14062,0.0781 0.40625,0.0781 0.20312,0 0.51562,-0.0469 z"
       fill-rule="nonzero"
       id="path64"
       clip-path="url(#clipPath75)" />
    <path
       fill="#0000ff"
       d="m 727.22707,203.1298 q -0.98437,-1.23438 -1.65625,-2.875 -0.65625,-1.64063 -0.65625,-3.39063 0,-1.54687 0.5,-2.96875 0.57813,-1.64062 1.8125,-3.28125 h 0.82813 q -0.78125,1.35938 -1.03125,1.9375 -0.40625,0.89063 -0.625,1.875 -0.28125,1.21875 -0.28125,2.4375 0,3.14063 1.9375,6.26563 z m 1.73529,-5.67188 v -1.1875 h 3.59375 v 1.1875 z m 4.2821,2.85938 v -1.17188 l 4.89063,-6.10937 q 0.51562,-0.65625 0.98437,-1.14063 h -5.32812 v -1.125 h 6.84375 v 1.125 l -5.35938,6.625 -0.57812,0.67188 h 6.09375 v 1.125 z m 9.51636,2.8125 h -0.82812 q 1.9375,-3.125 1.9375,-6.26563 0,-1.21875 -0.28125,-2.42187 -0.21875,-0.98438 -0.60938,-1.875 -0.26562,-0.59375 -1.04687,-1.95313 h 0.82812 q 1.23438,1.64063 1.8125,3.28125 0.5,1.42188 0.5,2.96875 0,1.75 -0.67187,3.39063 -0.67188,1.64062 -1.64063,2.875 z"
       fill-rule="nonzero"
       id="path65"
       clip-path="url(#clipPath74)" />
    <path
       fill="#000000"
       fill-opacity="0"
       d="m 683.04553,224.95824 h 48.37793 v 42.01575 h -48.37793 z"
       fill-rule="evenodd"
       id="path66"
       clip-path="url(#clipPath73)" />
    <path
       fill="#ff0000"
       d="m 701.09083,251.87824 5.17187,-6.95313 -4.5625,-6.40625 h 2.10938 l 2.42187,3.4375 q 0.75,1.0625 1.07813,1.625 0.4375,-0.71875 1.04687,-1.51562 l 2.6875,-3.54688 h 1.92188 l -4.6875,6.29688 5.0625,7.0625 h -2.1875 l -3.35938,-4.76563 q -0.28125,-0.40625 -0.59375,-0.89062 -0.4375,0.73437 -0.625,1 l -3.35937,4.65625 z"
       fill-rule="nonzero"
       id="path67"
       clip-path="url(#clipPath72)" />
    <path
       fill="#000000"
       fill-opacity="0"
       d="m 591.42348,127.28632 h 33.92126 v 42.01575 h -33.92126 z"
       fill-rule="evenodd"
       id="path68"
       clip-path="url(#clipPath71)" />
    <path
       fill="#00ff00"
       d="m 609.10433,154.20632 v -5.65625 l -5.15625,-7.70313 h 2.15625 l 2.64063,4.03125 q 0.71875,1.125 1.34375,2.26563 0.60937,-1.04688 1.46875,-2.35938 l 2.57812,-3.9375 h 2.0625 l -5.32812,7.70313 v 5.65625 z"
       fill-rule="nonzero"
       id="path69"
       clip-path="url(#clipPath70)" />
  </g>
</svg>
